<?xml version="1.0" encoding="UTF-8"?>
<!DOCTYPE svg PUBLIC "-//W3C//DTD SVG 1.1//EN" "http://www.w3.org/Graphics/SVG/1.1/DTD/svg11.dtd">
<!-- Creator: CorelDRAW X7 -->
<svg xmlns="http://www.w3.org/2000/svg" xml:space="preserve" width="655px" height="661px" version="1.1" style="shape-rendering:geometricPrecision; text-rendering:geometricPrecision; image-rendering:optimizeQuality; fill-rule:evenodd; clip-rule:evenodd"
viewBox="0 0 232 234"
 xmlns:xlink="http://www.w3.org/1999/xlink">
 <defs>
  <style type="text/css">
   <![CDATA[
    .fil0 {fill:#FEE400;fill-rule:nonzero}
   ]]>
  </style>
 </defs>
 <g id="Layer_x0020_1">
  <metadata id="CorelCorpID_0Corel-Layer"/>
  <path class="fil0" d="M123 234c-23,0 -44,-5 -63,-16 -18,-10 -33,-24 -44,-42 -11,-17 -16,-37 -16,-59 0,-22 5,-42 16,-60 11,-17 26,-31 44,-41 19,-11 40,-16 63,-16 24,0 45,5 64,15 19,10 34,23 45,39l-54 39c-5,-10 -12,-18 -22,-24 -9,-6 -20,-9 -32,-9 -10,0 -19,3 -27,8 -9,5 -15,12 -20,20 -4,8 -7,18 -7,29 0,11 3,20 7,29 5,8 11,15 20,20 8,5 17,7 27,7 12,0 23,-3 32,-9 10,-6 17,-14 22,-23l54 38c-11,17 -26,30 -45,40 -19,10 -40,15 -64,15z"/>
 </g>
</svg>
